# xmcd
#
# Track frame offsets:
#  150
#  11451
#  32166
#  49507
#  63992
#  81319
#  91621
#  110665
#  125338
#  139501
#  161444
#  176013
#  193570
#  206636
#  229918
#  246997
#  264094
#  281027
#  298327
#  311106
#  332778
#
# Disc length: 4737 seconds
#
# Revision: 0
# Processed by: cddbd v1.5.1PL0 Copyright (c) Steve Scherf et al.
# Submitted via: Collectorz.com Music Collector 6.9
#
DISCID=2e127f15
DTITLE=Various Artist - Honky Tonk 14
DYEAR=1900
DGENRE=
TTITLE0=Chris Smither - High Heel Sneakers
TTITLE1=Chris Smither - Cave Man
TTITLE2=Chris Smither - Hook, Line and Sinker
TTITLE3=Chris Smither - It Ain't Easy
TTITLE4=Chris Smither - Link of Chain
TTITLE5=Chris Smither - Mail Order Mystics
TTITLE6=Chris Smither - No Love Today
TTITLE7=Chris Smither - Statesboro Blu
TTITLE8=Chris Smither - ?
TTITLE9=Chris Smither - The Devil's Real
TTITLE10=Chris Smither - Time To Spend
TTITLE11=Steve Earle and Sheryl Crow - Time Has Come Today
TTITLE12=Steve Earle - Dixieland
TTITLE13=Steve Earle - State Trooper
TTITLE14=Steve Earle - Transcendental Blues
TTITLE15=Steve Earle - Before the Make Me Sin
TTITLE16=Steve Earle - Copperhead Road
TTITLE17=Steve Earle and Sheryl Crow - Time Has Come Today
TTITLE18=Lucinda Williams and Emmylou Harris and Kieran Kane - This Dirty Little Town
TTITLE19=Bacon Brothers - Folk Rock
TTITLE20=Robert Earl Keen - Lynnville Train
EXTD=
EXTT0=
EXTT1=
EXTT2=
EXTT3=
EXTT4=
EXTT5=
EXTT6=
EXTT7=
EXTT8=
EXTT9=
EXTT10=
EXTT11=
EXTT12=
EXTT13=
EXTT14=
EXTT15=
EXTT16=
EXTT17=
EXTT18=
EXTT19=
EXTT20=
PLAYORDER=
